HIERARCHY
ROOT Hips
{
  OFFSET 0.000000 0.000000 0.000000
  CHANNELS 6 Xposition Yposition Zposition Xrotation Yrotation Zrotation
  JOINT Spine
  {
    OFFSET 1.388230 22.849755 -8.157144
    CHANNELS 3 Xrotation Yrotation Zrotation
    JOINT Chest
    {
      OFFSET 1.388230 22.849755 -8.157144
      CHANNELS 3 Xrotation Yrotation Zrotation
      JOINT Neck
      {
        OFFSET 0.386562 8.498444 -3.690407
        CHANNELS 3 Xrotation Yrotation Zrotation
        JOINT Head
        {
          OFFSET 0.662911 7.396516 -7.447500
          CHANNELS 3 Xrotation Yrotation Zrotation
          End Site
          {
            OFFSET 0.198873 2.218955 -2.234250
          }
        }
      }
      JOINT LeftShoulder
      {
        OFFSET 17.248308 -1.208605 -0.261267
        CHANNELS 3 Xrotation Yrotation Zrotation
        JOINT LeftArm
        {
          OFFSET 7.635523 -21.435821 1.774202
          CHANNELS 3 Xrotation Yrotation Zrotation
          JOINT LeftForeArm
          {
            OFFSET 7.643843 -21.327462 -9.147581
            CHANNELS 3 Xrotation Yrotation Zrotation
            JOINT LeftHand
            {
              OFFSET 0.473402 -5.275506 -2.178749
              CHANNELS 3 Xrotation Yrotation Zrotation
              End Site
              {
                OFFSET 0.142021 -1.582652 -0.653625
              }
            }
          }
        }
      }
      JOINT RightShoulder
      {
        OFFSET -17.248308 1.208605 0.261267
        CHANNELS 3 Xrotation Yrotation Zrotation
        JOINT RightArm
        {
          OFFSET -12.133127 -21.363330 5.693170
          CHANNELS 3 Xrotation Yrotation Zrotation
          JOINT RightForeArm
          {
            OFFSET -7.740244 -22.047532 -5.230031
            CHANNELS 3 Xrotation Yrotation Zrotation
            JOINT RightHand
            {
              OFFSET -0.480044 -5.557554 -1.525311
              CHANNELS 3 Xrotation Yrotation Zrotation
              End Site
              {
                OFFSET -0.144013 -1.667266 -0.457593
              }
            }
          }
        }
      }
    }
  }
  JOINT LeftUpLeg
  {
    OFFSET 11.699587 -0.675443 -0.599665
    CHANNELS 3 Xrotation Yrotation Zrotation
    JOINT LeftLeg
    {
      OFFSET -6.527727 -38.483662 1.737457
      CHANNELS 3 Xrotation Yrotation Zrotation
      JOINT LeftFoot
      {
        OFFSET 3.065902 -35.809878 12.679608
        CHANNELS 3 Xrotation Yrotation Zrotation
        End Site
        {
          OFFSET 0.919771 -10.742963 3.803882
        }
      }
    }
  }
  JOINT RightUpLeg
  {
    OFFSET -11.699587 0.675443 0.599665
    CHANNELS 3 Xrotation Yrotation Zrotation
    JOINT RightLeg
    {
      OFFSET -1.173808 -37.981520 -1.210152
      CHANNELS 3 Xrotation Yrotation Zrotation
      JOINT RightFoot
      {
        OFFSET -7.846448 -39.021816 7.691272
        CHANNELS 3 Xrotation Yrotation Zrotation
        End Site
        {
          OFFSET -2.353934 -11.706545 2.307382
        }
      }
    }
  }
}
MOTION
Frames: 15
Frame Time: 0.083333
-3.569313 60.000000 -11.555628 -0.829474 -0.343116 -1.073928 -0.829474 -0.343116 -1.073928 159.801498 -1.841978 -20.497711 -22.988785 6.923640 2.399016 114.645092 -0.489096 -3.434350 6.165846 2.642407 21.899379 0.735350 0.676189 -1.380204 -98.289027 13.385677 33.821473 0.000000 0.000000 0.000000 13.872593 -12.581044 -56.727975 26.687413 0.722595 -5.606929 -106.647515 -7.819722 -17.857962 0.000000 0.000000 0.000000 1.514462 -0.204070 1.341369 -1.566937 -0.799495 -1.791966 0.000000 0.000000 0.000000 13.060861 1.091311 -10.176552 -0.995304 0.839929 3.076966 0.000000 0.000000 0.000000
-3.336961 60.000000 -10.516918 2.082391 -0.439021 -0.932379 2.082391 -0.439021 -0.932379 162.677441 -1.568277 -20.217306 -22.103826 7.216637 2.713498 114.535470 -0.870506 -5.993664 3.844617 2.272122 21.440631 -1.550374 0.345351 -1.086647 -97.997202 13.424512 34.048706 0.000000 0.000000 0.000000 19.628490 -12.486444 -54.885972 27.549133 -0.683695 -2.561566 -99.677982 -9.294498 -22.061018 0.000000 0.000000 0.000000 0.050933 0.114730 2.763628 -1.040353 -0.455887 -0.991708 0.000000 0.000000 0.000000 11.319674 0.944400 -9.853180 -0.972206 0.845325 3.124396 0.000000 0.000000 0.000000
-3.174440 60.000000 -9.686736 4.360154 -0.551519 -0.923440 4.360154 -0.551519 -0.923440 164.904675 -1.167544 -16.955641 -22.827393 7.270003 2.628016 113.752508 -0.888266 -5.856037 2.404672 1.963205 20.134802 -2.357295 0.176879 -0.829868 -97.365373 13.506730 34.542456 0.000000 0.000000 0.000000 18.686159 -11.979723 -49.263572 19.852388 -1.174231 -0.651111 -84.376698 -10.005380 -27.567598 0.000000 0.000000 0.000000 0.413243 0.092255 3.989265 -0.061678 0.021203 0.086025 0.000000 0.000000 0.000000 10.064868 0.853101 -9.685486 -1.478275 1.086408 3.705410 0.000000 0.000000 0.000000
-2.996210 60.000000 -8.809339 6.185287 -0.624136 -0.858439 6.185287 -0.624136 -0.858439 166.646451 -0.565796 -9.643049 -23.519167 6.562211 2.109132 113.193004 0.103310 0.521086 0.110810 1.388912 17.393226 -5.144065 -0.161058 -0.534590 -96.420240 13.503614 35.075655 0.000000 0.000000 0.000000 11.632121 -10.095644 -36.994846 11.302730 -0.614340 -0.728107 -77.896019 -7.100889 -24.716575 0.000000 0.000000 0.000000 1.383357 -0.082746 4.606089 0.760492 0.362560 0.856746 0.000000 0.000000 0.000000 9.142306 0.796820 -9.615026 -1.878014 1.300184 4.247949 0.000000 0.000000 0.000000
-2.814467 60.000000 -8.096789 6.395601 -0.565738 -0.626774 6.395601 -0.565738 -0.626774 166.806688 -0.221193 -3.998948 -24.305738 5.253187 1.241926 112.902082 1.851148 11.024054 -0.257730 1.015779 13.491407 -5.483635 -0.284588 -0.273157 -95.562333 13.383456 35.365841 0.000000 0.000000 0.000000 5.577338 -6.726697 -20.631818 3.815643 0.262718 -2.109656 -72.949025 -4.830986 -21.937008 0.000000 0.000000 0.000000 1.259484 -0.058389 4.563812 0.609244 0.482510 1.237128 0.000000 0.000000 0.000000 6.307694 0.623038 -9.352436 -2.098754 1.487032 4.856084 0.000000 0.000000 0.000000
-2.685215 60.000000 -7.476388 5.830029 -0.460168 -0.372935 5.830029 -0.460168 -0.372935 166.135194 0.530035 8.210265 -24.860466 4.249882 0.605702 112.562392 3.282193 18.963958 -0.389022 0.821139 11.432194 -5.558208 -0.289517 -0.272763 -94.809773 13.156389 35.410526 0.000000 0.000000 0.000000 2.729141 -4.143071 -11.881576 0.761754 0.763481 -3.480379 -70.889235 -4.723123 -22.422962 0.000000 0.000000 0.000000 0.826079 0.026961 4.420830 0.856118 0.507569 1.257714 0.000000 0.000000 0.000000 4.904433 0.517639 -8.812039 -1.563859 1.366861 4.917238 0.000000 0.000000 0.000000
-2.739759 60.000000 -7.035746 4.211622 -0.372194 -0.363594 4.211622 -0.372194 -0.363594 164.378378 1.477915 19.566588 -25.851639 3.638454 0.157916 111.999258 4.142898 22.829107 -0.898422 0.702189 11.380349 -5.112474 -0.200278 -0.421965 -94.417835 12.938207 35.247085 0.000000 0.000000 0.000000 1.167346 -2.679744 -8.653670 1.762768 0.830750 -3.916563 -70.943420 -3.752629 -19.968097 0.000000 0.000000 0.000000 0.573726 0.075249 4.293137 0.749618 0.612754 1.588911 0.000000 0.000000 0.000000 3.517962 0.370299 -7.865244 -0.194065 1.051472 5.059234 0.000000 0.000000 0.000000
-2.963527 60.000000 -6.617613 0.551953 -0.318249 -0.788584 0.551953 -0.318249 -0.788584 160.450401 3.077548 33.770791 -27.742529 3.018477 -0.371008 111.424070 5.014383 26.221351 -2.992245 0.426521 13.473588 -4.329683 0.014569 -0.821652 -93.490376 12.194286 34.430597 0.000000 0.000000 0.000000 -0.962874 -0.551252 -4.078860 2.484877 0.907479 -4.394858 -70.861163 -3.845436 -20.231283 0.000000 0.000000 0.000000 2.314797 -0.285627 4.344372 1.425467 0.850058 2.149592 0.000000 0.000000 0.000000 7.976606 0.465278 -7.087239 0.609862 0.989607 5.740287 0.000000 0.000000 0.000000
-3.100779 60.000000 -5.753372 -3.396129 -0.363956 -1.454089 -3.396129 -0.363956 -1.454089 156.182609 4.411189 40.098328 -28.328290 1.261060 -1.362580 111.709370 7.042763 36.543931 -5.753025 0.364524 18.351858 -3.495120 0.345878 -1.426899 -91.681096 11.279200 33.784527 0.000000 0.000000 0.000000 -1.007024 -0.000183 -2.081122 -2.145854 1.123426 -4.795484 -70.757298 -3.795989 -20.142461 0.000000 0.000000 0.000000 3.651340 -0.564938 4.327357 1.797904 1.127024 2.891489 0.000000 0.000000 0.000000 11.798990 0.540301 -6.685662 -0.223080 1.248296 5.973248 0.000000 0.000000 0.000000
-2.993356 60.000000 -4.301647 -4.389964 -0.788682 -2.628183 -4.389964 -0.788682 -2.628183 154.833403 4.999829 42.720676 -26.923839 -1.778834 -2.858566 113.411340 9.753286 52.867794 -4.804356 1.539473 27.017776 0.306134 1.169137 -2.496790 -90.968542 11.402990 34.355631 0.000000 0.000000 0.000000 0.247401 -0.658878 -1.987075 -2.130459 1.139956 -4.886386 -71.421081 -4.330729 -21.220871 0.000000 0.000000 0.000000 3.592360 -0.553069 4.302187 0.886983 1.474426 4.041987 0.000000 0.000000 0.000000 11.071330 0.499532 -6.532006 -0.852003 1.373091 5.799778 0.000000 0.000000 0.000000
-2.742599 60.000000 -1.894065 -5.259086 -1.388465 -4.184548 -5.259086 -1.388465 -4.184548 153.518666 5.428229 43.992692 -26.659475 -3.779770 -3.908274 114.492794 10.317495 58.503893 -2.796962 2.502319 36.098848 2.149209 2.029038 -3.788986 -94.952365 13.710985 36.081651 0.000000 0.000000 0.000000 0.536950 -0.837172 -2.072408 -0.630898 1.042425 -4.582467 -73.312856 -5.783107 -23.937037 0.000000 0.000000 0.000000 3.260852 -0.487585 4.128883 -1.135076 1.632770 4.754463 0.000000 0.000000 0.000000 11.261313 0.498635 -6.485409 -2.376402 1.661203 5.348331 0.000000 0.000000 0.000000
-2.599815 60.000000 0.547329 -5.587606 -1.865585 -5.358746 -5.587606 -1.865585 -5.358746 152.933368 5.275934 41.983546 -27.832265 -4.307951 -4.195302 114.157769 9.057840 52.104591 1.992199 3.287496 45.126212 4.909979 2.822625 -4.650312 -102.616766 16.632780 36.745352 0.000000 0.000000 0.000000 0.834365 -1.278005 -3.165901 0.852591 0.945020 -4.307221 -77.796160 -7.376834 -25.420033 0.000000 0.000000 0.000000 3.282038 -0.496454 3.780029 -3.196203 1.471835 4.548674 0.000000 0.000000 0.000000 12.059021 0.535984 -6.620217 -4.892627 2.125965 4.617010 0.000000 0.000000 0.000000
-2.450548 60.000000 1.959072 -5.712472 -2.388370 -6.639593 -5.712472 -2.388370 -6.639593 152.511681 5.204153 40.800939 -28.119262 -4.132523 -4.102389 113.959293 7.504549 44.375010 4.541546 3.334447 51.598303 5.044319 2.838775 -4.661360 -108.757696 15.171481 31.309125 0.000000 0.000000 0.000000 0.380789 -1.720976 -5.954033 0.233946 0.866935 -3.866327 -81.487625 -10.129293 -29.239182 0.000000 0.000000 0.000000 4.717353 -0.785772 3.203737 -3.894703 1.193607 3.883311 0.000000 0.000000 0.000000 13.472298 0.513680 -6.132817 -6.061808 2.219293 3.841382 0.000000 0.000000 0.000000
-2.278582 60.000000 1.698671 -5.002632 -2.623656 -7.220923 -5.002632 -2.623656 -7.220923 153.308953 4.601914 37.341139 -27.720292 -3.733450 -3.894551 113.961710 6.135364 37.721814 10.740874 2.602489 55.318682 9.612903 2.912140 -3.845893 -110.624477 11.562507 25.539233 0.000000 0.000000 0.000000 1.041997 -2.865761 -9.575114 -0.810448 0.789672 -3.347058 -86.042343 -12.382668 -31.102481 0.000000 0.000000 0.000000 8.935711 -1.616638 2.947692 -1.850857 0.979356 3.058929 0.000000 0.000000 0.000000 12.200605 0.447194 -5.543745 -8.140957 2.669461 3.647859 0.000000 0.000000 0.000000
-2.203215 60.000000 1.171288 -4.581006 -2.508551 -6.944069 -4.581006 -2.508551 -6.944069 154.147262 3.697445 31.395576 -26.991304 -3.661193 -3.852252 114.243931 5.700617 36.587950 19.025948 1.377630 56.143742 17.953453 2.918586 -2.302790 -112.028777 8.299749 20.566768 0.000000 0.000000 0.000000 3.396652 -4.845176 -14.142760 -0.901218 0.586685 -2.369960 -91.641593 -13.941048 -30.982318 0.000000 0.000000 0.000000 10.164823 -1.851550 2.787537 -1.352300 0.735770 2.303037 0.000000 0.000000 0.000000 3.841574 0.160471 -4.128265 -8.766981 2.649280 3.024235 0.000000 0.000000 0.000000
